<svg id="Layer_1" data-name="Layer 1" xmlns="http://www.w3.org/2000/svg" viewBox="0 0 512 512"><defs><style>.cls-1{fill:none;stroke:#fff;stroke-linecap:round;stroke-linejoin:round;stroke-width:16px;}</style></defs><title>icon-hashtags</title><circle class="cls-1" cx="256" cy="256" r="79.2"/><circle class="cls-1" cx="171" cy="108.78" r="39.6" transform="translate(-31.48 100.07) rotate(-30)"/><line class="cls-1" x1="234" y1="296" x2="234" y2="216"/><line class="cls-1" x1="278" y1="296" x2="278" y2="216"/><line class="cls-1" x1="216" y1="234" x2="296" y2="234"/><line class="cls-1" x1="216" y1="278" x2="296" y2="278"/><line class="cls-1" x1="190.8" y1="143.07" x2="216.4" y2="187.41"/><circle class="cls-1" cx="341" cy="403.22" r="39.6" transform="translate(-155.93 224.52) rotate(-30)"/><line class="cls-1" x1="321.2" y1="368.93" x2="295.6" y2="324.59"/><circle class="cls-1" cx="86" cy="256" r="39.6"/><line class="cls-1" x1="125.6" y1="256" x2="176.8" y2="256"/><circle class="cls-1" cx="426" cy="256" r="39.6"/><line class="cls-1" x1="386.4" y1="256" x2="335.2" y2="256"/><circle class="cls-1" cx="171" cy="403.22" r="39.6" transform="matrix(0.5, -0.87, 0.87, 0.5, -263.7, 349.7)"/><line class="cls-1" x1="190.8" y1="368.93" x2="216.4" y2="324.59"/><circle class="cls-1" cx="341" cy="108.78" r="39.6" transform="matrix(0.5, -0.87, 0.87, 0.5, 76.3, 349.7)"/><line class="cls-1" x1="321.2" y1="143.07" x2="295.6" y2="187.41"/></svg>