<svg id="Layer_1" data-name="Layer 1" xmlns="http://www.w3.org/2000/svg" viewBox="0 0 512 512"><defs><style>.cls-1{fill:none;stroke:#fff;stroke-miterlimit:10;stroke-width:16px;}</style></defs><title>icon-insights</title><path class="cls-1" d="M164.88,347.13A91.13,91.13,0,0,0,73.75,256a91.12,91.12,0,0,0,91.13,91.13"/><path class="cls-1" d="M164.88,347.13A91.13,91.13,0,0,1,256,256a91.12,91.12,0,0,1-91.12,91.13"/><path class="cls-1" d="M164.88,347.13A91.13,91.13,0,0,0,256,438.25a91.12,91.12,0,0,0-91.12-91.12"/><path class="cls-1" d="M164.88,347.13a91.13,91.13,0,0,1-91.12,91.13,91.12,91.12,0,0,1,91.13-91.12"/><path class="cls-1" d="M347.13,347.13A91.13,91.13,0,0,0,256,256a91.12,91.12,0,0,0,91.13,91.13"/><path class="cls-1" d="M347.13,347.13A91.13,91.13,0,0,1,438.25,256a91.12,91.12,0,0,1-91.12,91.13"/><path class="cls-1" d="M347.13,347.13a91.13,91.13,0,0,0,91.13,91.13,91.12,91.12,0,0,0-91.12-91.12"/><path class="cls-1" d="M347.13,347.13A91.13,91.13,0,0,1,256,438.25a91.12,91.12,0,0,1,91.13-91.12"/><path class="cls-1" d="M164.88,164.88A91.13,91.13,0,0,0,73.75,73.75a91.12,91.12,0,0,0,91.13,91.13"/><path class="cls-1" d="M164.88,164.88A91.13,91.13,0,0,1,256,73.75a91.12,91.12,0,0,1-91.12,91.13"/><path class="cls-1" d="M164.88,164.88A91.13,91.13,0,0,0,256,256a91.12,91.12,0,0,0-91.12-91.12"/><path class="cls-1" d="M164.88,164.88A91.13,91.13,0,0,1,73.75,256a91.12,91.12,0,0,1,91.13-91.12"/><path class="cls-1" d="M347.13,164.88A91.13,91.13,0,0,0,256,73.75a91.12,91.12,0,0,0,91.13,91.13"/><path class="cls-1" d="M347.13,164.88a91.13,91.13,0,0,1,91.13-91.12,91.12,91.12,0,0,1-91.12,91.13"/><path class="cls-1" d="M347.13,164.88A91.13,91.13,0,0,0,438.25,256a91.12,91.12,0,0,0-91.12-91.12"/><path class="cls-1" d="M347.13,164.88A91.13,91.13,0,0,1,256,256a91.12,91.12,0,0,1,91.13-91.12"/></svg>