<svg id="Layer_1" data-name="Layer 1" xmlns="http://www.w3.org/2000/svg" viewBox="0 0 512 512"><defs><style>.cls-1{fill:none;stroke:#fff;stroke-miterlimit:10;stroke-width:16px;}</style></defs><title>icon-facebook-ads</title><rect class="cls-1" x="137.82" y="137.82" width="236.95" height="236.95" transform="translate(-78.57 395) rotate(-67.5)"/><path class="cls-1" d="M187.47,35.25a29.7,29.7,0,0,0-22.73,54.88l27.44,11.37,11.37-27.44A29.7,29.7,0,0,0,187.47,35.25Z"/><path class="cls-1" d="M477.34,187.47a29.7,29.7,0,0,0-54.88-22.73l-11.37,27.44,27.44,11.37A29.7,29.7,0,0,0,477.34,187.47Z"/><path class="cls-1" d="M51.32,363.93A29.7,29.7,0,1,1,74.06,309l27.44,11.37L90.13,347.85A29.7,29.7,0,0,1,51.32,363.93Z"/><path class="cls-1" d="M363.93,461.26A29.7,29.7,0,1,1,309,438.53l11.37-27.44,27.44,11.37A29.7,29.7,0,0,1,363.93,461.26Z"/><rect class="cls-1" x="137.82" y="137.82" width="236.95" height="236.95" transform="translate(117.59 591.16) rotate(-112.5)"/><polygon class="cls-1" points="256 212.5 212.7 287.5 299.3 287.5 256 212.5"/><path class="cls-1" d="M51.32,148.66a29.7,29.7,0,1,0,22.73,54.88l27.44-11.37L90.13,164.73A29.7,29.7,0,0,0,51.32,148.66Z"/><path class="cls-1" d="M363.93,51.32A29.7,29.7,0,0,0,309,74.06l11.37,27.44,27.44-11.37A29.7,29.7,0,0,0,363.93,51.32Z"/><path class="cls-1" d="M187.47,477.34a29.7,29.7,0,0,1-22.73-54.88l27.44-11.37,11.37,27.44A29.7,29.7,0,0,1,187.47,477.34Z"/><path class="cls-1" d="M477.34,325.12a29.7,29.7,0,0,1-54.88,22.73l-11.37-27.44L438.53,309A29.7,29.7,0,0,1,477.34,325.12Z"/></svg>