<svg id="Layer_1" data-name="Layer 1" xmlns="http://www.w3.org/2000/svg" viewBox="0 0 512 512"><defs><style>.cls-1,.cls-2{fill:none;stroke:#fff;stroke-width:16px;}.cls-1{stroke-miterlimit:10;}.cls-2{stroke-linecap:round;stroke-linejoin:round;}</style></defs><title>icon-hashtags-old</title><path class="cls-1" d="M390,388.23c-18.81-15.15-40.32-12.31-63.49,18.07s-42,1-70.5,26.66c-28.5-25.69-47.34,3.65-70.47-26.75S140.87,372.95,122,388.07"/><polyline class="cls-1" points="120.15 242.14 120.15 399 256 477.43 391.85 399 391.85 242.14"/><line class="cls-1" x1="256" y1="335.2" x2="256" y2="477.43"/><line class="cls-1" x1="150.65" y1="385.45" x2="150.65" y2="242.14"/><line class="cls-1" x1="361.35" y1="385.45" x2="361.35" y2="242.14"/><path class="cls-1" d="M282.44,31.63a36,36,0,1,0-50.91,50.91L257,108l25.46-25.46A36,36,0,0,0,282.44,31.63Z"/><path class="cls-1" d="M75.41,121.77A36,36,0,1,0,94,191.32L128.82,182l-9.32-34.77A36,36,0,0,0,75.41,121.77Z"/><path class="cls-1" d="M464,165.86a36,36,0,1,0-69.55-18.63L385.16,182l34.77,9.32A36,36,0,0,0,464,165.86Z"/><circle class="cls-2" cx="256" cy="256" r="79.2"/><line class="cls-2" x1="234" y1="296" x2="234" y2="216"/><line class="cls-2" x1="278" y1="296" x2="278" y2="216"/><line class="cls-2" x1="216" y1="234" x2="296" y2="234"/><line class="cls-2" x1="216" y1="278" x2="296" y2="278"/><path class="cls-1" d="M175.34,257.48c-19.27-19.13-37.26-19.29-53.3-6.41"/><path class="cls-1" d="M390,251.22c-16-12.89-34-12.75-53.26,6.3"/></svg>