<svg id="Layer_1" data-name="Layer 1" xmlns="http://www.w3.org/2000/svg" viewBox="0 0 512 512"><defs><style>.cls-1{fill:none;stroke:#fff;stroke-miterlimit:10;stroke-width:16px;}.cls-2{fill:#fff;}</style></defs><title>icon-beautify</title><rect class="cls-1" x="148.59" y="148.59" width="215.41" height="215.41"/><circle class="cls-1" cx="256.29" cy="256.29" r="48.78"/><circle class="cls-2" cx="320.29" cy="192.29" r="18.29"/><path class="cls-1" d="M364.19,147.81a81,81,0,0,0,0-114.55,81,81,0,0,0,0,114.55"/><path class="cls-1" d="M364.19,147.81a81,81,0,0,1,114.55,0,81,81,0,0,1-114.55,0"/><path class="cls-1" d="M147.81,364.19a81,81,0,0,0,0,114.55,81,81,0,0,0,0-114.55"/><path class="cls-1" d="M147.81,364.19a81,81,0,0,1-114.55,0,81,81,0,0,1,114.55,0"/><path class="cls-1" d="M364.19,364.19a81,81,0,0,0,114.55,0,81,81,0,0,0-114.55,0"/><path class="cls-1" d="M364.19,364.19a81,81,0,0,1,0,114.55,81,81,0,0,1,0-114.55"/><path class="cls-1" d="M147.81,147.81a81,81,0,0,0-114.55,0,81,81,0,0,0,114.55,0"/><path class="cls-1" d="M128.59,128.59a81,81,0,0,0-81-81,81,81,0,0,0,81,81"/><path class="cls-1" d="M384,128.59a81,81,0,0,0,81-81,81,81,0,0,0-81,81"/><path class="cls-1" d="M384,384a81,81,0,0,0,81,81,81,81,0,0,0-81-81"/><path class="cls-1" d="M128.59,384a81,81,0,0,0-81,81,81,81,0,0,0,81-81"/><path class="cls-1" d="M147.81,147.81a81,81,0,0,1,0-114.55,81,81,0,0,1,0,114.55"/><polygon class="cls-1" points="256 58.4 227.13 108.4 284.87 108.4 256 58.4"/><polygon class="cls-1" points="256 454.77 227.13 404.77 284.87 404.77 256 454.77"/><polygon class="cls-1" points="454.19 256.59 404.19 227.72 404.19 285.45 454.19 256.59"/><polygon class="cls-1" points="57.81 256.59 107.81 227.72 107.81 285.45 57.81 256.59"/></svg>