<svg id="Layer_1" data-name="Layer 1" xmlns="http://www.w3.org/2000/svg" viewBox="0 0 512 512"><defs><style>.cls-1{fill:none;stroke:#fff;stroke-linecap:round;stroke-linejoin:round;stroke-width:16px;}</style></defs><title>icon-bloom</title><path class="cls-1" d="M364.67,147.17A79.56,79.56,0,0,1,343.5,250.59a79.58,79.58,0,0,1,71.89,4.75,79.56,79.56,0,0,0-80.12-137.47A79.18,79.18,0,0,1,364.67,147.17Z"/><path class="cls-1" d="M216.22,107.71a79.56,79.56,0,0,1,79,70,79.58,79.58,0,0,1,40.06-59.88,79.56,79.56,0,0,0-159.11.66A79.18,79.18,0,0,1,216.22,107.71Z"/><path class="cls-1" d="M107.83,216.55A79.56,79.56,0,0,1,208,183.17a79.58,79.58,0,0,1-31.83-64.64,79.56,79.56,0,0,0-79,138.12A79.18,79.18,0,0,1,107.83,216.55Z"/><path class="cls-1" d="M147.88,364.83a79.56,79.56,0,0,1,21.17-103.42,79.58,79.58,0,0,1-71.89-4.75,79.56,79.56,0,0,0,80.12,137.47A79.18,79.18,0,0,1,147.88,364.83Z"/><path class="cls-1" d="M296.33,404.29a79.56,79.56,0,0,1-79-70,79.58,79.58,0,0,1-40.06,59.88,79.56,79.56,0,0,0,159.11-.66A79.18,79.18,0,0,1,296.33,404.29Z"/><path class="cls-1" d="M402.73,295.45a79.56,79.56,0,0,1-100.15,33.38,79.58,79.58,0,0,1,31.83,64.64,79.56,79.56,0,0,0,79-138.12A79.18,79.18,0,0,1,402.73,295.45Z"/><circle class="cls-1" cx="256" cy="256" r="79.2"/><circle class="cls-1" cx="256.32" cy="256.32" r="53.66"/></svg>