<svg id="Layer_1" data-name="Layer 1" xmlns="http://www.w3.org/2000/svg" viewBox="0 0 512 512"><defs><style>.cls-1{fill:#fff;}</style></defs><title>icon-attending</title><path class="cls-1" d="M75.07,411.52c-35.6-16.08-10-52.27,6.22-72.18S238.54,44,326.47,74.25c79.65,27.38,50.74,107.37,29.43,183.24C334.41,334,302.82,456.29,409.85,433.88s1.92,29.37-42.43,28.16-110.66-19.41-77-142.62c42.4-155.37,57.15-224,3.73-192.9S163.43,324.4,139.79,358,113.65,428.94,75.07,411.52Z"/><path class="cls-1" d="M52.15,239.77c-6.89-30.51,15.6-42.52,66.48-46,57.68-4,362.29-33.6,362.16-13.69-.08,12.17-124.5,36.09-224,49.78S62.83,287.06,52.15,239.77Z"/></svg>