<svg id="Layer_1" data-name="Layer 1" xmlns="http://www.w3.org/2000/svg" viewBox="0 0 512 512"><title>icon-main</title><path class="cls-1" d="M337.29,148.29a27,27,0,0,0-54,0Z"/><rect class="cls-1" x="148.59" y="148.59" width="215.41" height="215.41"/><path class="cls-1" d="M94.59,40.59a54,54,0,0,0,0,108h54v-54A54,54,0,0,0,94.59,40.59Z"/><circle class="cls-1" cx="256.29" cy="256.29" r="72"/><circle class="cls-1" cx="256.29" cy="256.29" r="36.59"/><line class="cls-2" x1="94.59" y1="94.59" x2="148.59" y2="148.59"/><path class="cls-1" d="M418,472a54,54,0,0,0,0-108H364v54A54,54,0,0,0,418,472Z"/><line class="cls-2" x1="418" y1="418" x2="364" y2="364"/><path class="cls-1" d="M472,94.59a54,54,0,1,0-108,0v54h54A54,54,0,0,0,472,94.59Z"/><line class="cls-2" x1="418" y1="94.59" x2="364" y2="148.59"/><path class="cls-1" d="M40.59,418a54,54,0,0,0,108,0V364h-54A54,54,0,0,0,40.59,418Z"/><line class="cls-2" x1="94.59" y1="418" x2="148.59" y2="364"/><path class="cls-1" d="M256,103a81,81,0,0,0-81-81,81,81,0,0,0,81,81"/><path class="cls-1" d="M256,103a81,81,0,0,1,81-81,81,81,0,0,1-81,81"/><path class="cls-1" d="M256,409a81,81,0,0,0,81,81,81,81,0,0,0-81-81"/><path class="cls-1" d="M256,409a81,81,0,0,1-81,81,81,81,0,0,1,81-81"/><path class="cls-1" d="M409,256a81,81,0,0,0,81-81,81,81,0,0,0-81,81"/><path class="cls-1" d="M409,256a81,81,0,0,1,81,81,81,81,0,0,1-81-81"/><path class="cls-1" d="M103,256a81,81,0,0,0-81,81,81,81,0,0,0,81-81"/><path class="cls-1" d="M103,256a81,81,0,0,1-81-81,81,81,0,0,1,81,81"/></svg>