<svg id="Layer_1" data-name="Layer 1" xmlns="http://www.w3.org/2000/svg" viewBox="0 0 512 512"><defs><style>.cls-1,.cls-2{fill:none;stroke:#fff;stroke-miterlimit:10;stroke-width:16px;}.cls-2{stroke-linecap:round;}</style></defs><title>icon-thread</title><path class="cls-1" d="M256,118.34a40.5,40.5,0,0,0-40.5-40.5,40.5,40.5,0,0,0,40.5,40.5"/><path class="cls-1" d="M256,118.34a40.5,40.5,0,0,1,40.5-40.5,40.5,40.5,0,0,1-40.5,40.5"/><path class="cls-1" d="M394.25,256a40.5,40.5,0,0,0,40.5-40.5,40.5,40.5,0,0,0-40.5,40.5"/><path class="cls-1" d="M394.25,256a40.5,40.5,0,0,1,40.5,40.5,40.5,40.5,0,0,1-40.5-40.5"/><path class="cls-1" d="M256.59,394.25a40.5,40.5,0,0,0,40.5,40.5,40.5,40.5,0,0,0-40.5-40.5"/><path class="cls-1" d="M256.59,394.25a40.5,40.5,0,0,1-40.5,40.5,40.5,40.5,0,0,1,40.5-40.5"/><path class="cls-1" d="M118.34,256.59a40.5,40.5,0,0,0-40.5,40.5,40.5,40.5,0,0,0,40.5-40.5"/><path class="cls-1" d="M118.34,256.59a40.5,40.5,0,0,1-40.5-40.5,40.5,40.5,0,0,1,40.5,40.5"/><path class="cls-1" d="M364,364a81,81,0,0,1,0,114.55A81,81,0,0,1,364,364"/><line class="cls-2" x1="417.23" y1="417.81" x2="363.23" y2="363.81"/><path class="cls-1" d="M364,364a81,81,0,0,0,114.55,0A81,81,0,0,0,364,364"/><line class="cls-1" x1="256" y1="211.54" x2="256" y2="300.46"/><path class="cls-1" d="M256,300.46a27,27,0,0,0,27,27"/><path class="cls-1" d="M256,300.46a27,27,0,0,1-27,27"/><path class="cls-1" d="M256,300.46a27,27,0,0,0,27,27"/><path class="cls-1" d="M256,300.46a27,27,0,0,1-27,27"/><path class="cls-1" d="M256,211.54a27,27,0,0,1,27-27"/><path class="cls-1" d="M256,211.54a27,27,0,0,0-27-27"/><circle class="cls-1" cx="256" cy="256" r="108"/><path class="cls-1" d="M379,456a54,54,0,0,0,76.75-76"/><path class="cls-1" d="M148,364a81,81,0,0,1-114.55,0A81,81,0,0,1,148,364"/><line class="cls-2" x1="94.19" y1="417.23" x2="148.19" y2="363.23"/><path class="cls-1" d="M148,364a81,81,0,0,0,0,114.55A81,81,0,0,0,148,364"/><path class="cls-1" d="M56,379a54,54,0,0,0,76,76.75"/><path class="cls-1" d="M148,148a81,81,0,0,1,0-114.55A81,81,0,0,1,148,148"/><line class="cls-2" x1="94.77" y1="94.19" x2="148.77" y2="148.19"/><path class="cls-1" d="M148,148a81,81,0,0,0-114.55,0A81,81,0,0,0,148,148"/><path class="cls-1" d="M133,56a54,54,0,0,0-76.75,76"/><path class="cls-1" d="M364,148a81,81,0,0,1,114.55,0A81,81,0,0,1,364,148"/><line class="cls-2" x1="417.81" y1="94.77" x2="363.81" y2="148.77"/><path class="cls-1" d="M364,148a81,81,0,0,0,0-114.55A81,81,0,0,0,364,148"/><path class="cls-1" d="M456,133a54,54,0,0,0-76-76.75"/><path class="cls-1" d="M332.42,332.31,364,364"/><path class="cls-1" d="M148.59,147.81,180,179.31"/><path class="cls-1" d="M179.89,332,148.2,363.61"/><path class="cls-1" d="M364.39,148.2l-31.49,31.38"/></svg>