<svg id="Layer_1" data-name="Layer 1" xmlns="http://www.w3.org/2000/svg" viewBox="0 0 512 512"><title>Artboard 1</title><circle cx="256.99" cy="256" r="108" fill="none" stroke="#fff" stroke-miterlimit="10" stroke-width="16"/><path d="M199.81,202a40.1,40.1,0,0,0-26.4-11.74" fill="none" stroke="#fff" stroke-miterlimit="10" stroke-width="16"/><path d="M199.81,202a40.25,40.25,0,0,0,56.92,0" fill="none" stroke="#fff" stroke-miterlimit="10" stroke-width="16"/><path d="M313.65,202a40.25,40.25,0,0,0-56.92,0" fill="none" stroke="#fff" stroke-miterlimit="10" stroke-width="16"/><path d="M313.65,202a40.25,40.25,0,0,0,41.79,9.53" fill="none" stroke="#fff" stroke-miterlimit="10" stroke-width="16"/><path d="M199.81,257a40.25,40.25,0,0,0-52.8-3.6" fill="none" stroke="#fff" stroke-miterlimit="10" stroke-width="16"/><path d="M199.81,257a40.25,40.25,0,0,0,56.92,0" fill="none" stroke="#fff" stroke-miterlimit="10" stroke-width="16"/><path d="M313.65,257a40.25,40.25,0,0,0-56.92,0" fill="none" stroke="#fff" stroke-miterlimit="10" stroke-width="16"/><path d="M313.65,257a40.26,40.26,0,0,0,50.6,5.16" fill="none" stroke="#fff" stroke-miterlimit="10" stroke-width="16"/><path d="M199.81,312a40.24,40.24,0,0,0-40.54-9.94" fill="none" stroke="#fff" stroke-miterlimit="10" stroke-width="16"/><path d="M199.81,312a40.25,40.25,0,0,0,56.92,0" fill="none" stroke="#fff" stroke-miterlimit="10" stroke-width="16"/><path d="M313.65,312a40.25,40.25,0,0,0-56.92,0" fill="none" stroke="#fff" stroke-miterlimit="10" stroke-width="16"/><path d="M313.65,312a40.11,40.11,0,0,0,27.42,11.77" fill="none" stroke="#fff" stroke-miterlimit="10" stroke-width="16"/><path d="M282.44,31.63a36,36,0,1,0-51.32,50.5l.41.41L257,108l25.46-25.46A36,36,0,0,0,282.44,31.63Z" fill="none" stroke="#fff" stroke-miterlimit="10" stroke-width="16"/><line x1="256.99" y1="57.09" x2="256.99" y2="108" fill="none" stroke="#fff" stroke-linecap="round" stroke-miterlimit="10" stroke-width="16"/><path d="M231.53,480.37a36,36,0,1,0,51.32-50.5l-.41-.41L257,404l-25.46,25.46A36,36,0,0,0,231.53,480.37Z" fill="none" stroke="#fff" stroke-miterlimit="10" stroke-width="16"/><line x1="256.99" y1="454.91" x2="256.99" y2="404" fill="none" stroke="#fff" stroke-linecap="round" stroke-miterlimit="10" stroke-width="16"/><path d="M75.41,121.77A36,36,0,1,0,92.94,191.6l1.06-.28L128.82,182l-9.32-34.77a36,36,0,0,0-44.09-25.46Z" fill="none" stroke="#fff" stroke-miterlimit="10" stroke-width="16"/><line x1="84.73" y1="156.54" x2="128.82" y2="182" fill="none" stroke="#fff" stroke-linecap="round" stroke-miterlimit="10" stroke-width="16"/><path d="M438.57,390.23a36,36,0,1,0-18.63-69.55L385.16,330l9.32,34.77a36,36,0,0,0,44.09,25.46Z" fill="none" stroke="#fff" stroke-miterlimit="10" stroke-width="16"/><line x1="429.25" y1="355.46" x2="385.16" y2="330" fill="none" stroke="#fff" stroke-linecap="round" stroke-miterlimit="10" stroke-width="16"/><path d="M50,346.14a36,36,0,0,0,69.55,18.63L128.82,330,94,320.68A36,36,0,0,0,50,346.14Z" fill="none" stroke="#fff" stroke-miterlimit="10" stroke-width="16"/><line x1="84.73" y1="355.46" x2="128.82" y2="330" fill="none" stroke="#fff" stroke-linecap="round" stroke-miterlimit="10" stroke-width="16"/><path d="M464,165.86a36,36,0,0,0-69.55-18.63L385.16,182l34.77,9.32A36,36,0,0,0,464,165.86Z" fill="none" stroke="#fff" stroke-miterlimit="10" stroke-width="16"/><line x1="429.25" y1="156.54" x2="385.16" y2="182" fill="none" stroke="#fff" stroke-linecap="round" stroke-miterlimit="10" stroke-width="16"/></svg>